<?xml version="1.0" standalone="no"?>
<!DOCTYPE svg PUBLIC "-//W3C//DTD SVG 20010904//EN"
 "http://www.w3.org/TR/2001/REC-SVG-20010904/DTD/svg10.dtd">
<svg version="1.0" xmlns="http://www.w3.org/2000/svg"
 width="730.000000pt" height="486.000000pt" viewBox="0 0 730.000000 486.000000"
 preserveAspectRatio="xMidYMid meet">
<metadata>
Created by potrace 1.15, written by Peter Selinger 2001-2017
</metadata>
<g transform="translate(0.000000,486.000000) scale(0.100000,-0.100000)"
fill="#000000" stroke="none">
<path d="M1 3488 c0 -837 4 -1365 9 -1353 11 22 191 522 275 760 130 368 310
864 330 910 76 171 249 302 472 357 71 18 116 22 238 21 254 0 336 -25 925
-281 422 -183 1912 -837 2145 -942 22 -10 114 -50 205 -90 705 -311 696 -306
816 -432 86 -91 143 -173 199 -287 66 -134 71 -151 224 -826 l18 -80 44 -13
c78 -23 93 -34 105 -82 14 -50 74 -304 192 -810 l78 -335 211 -3 212 -2 3 22
c4 30 44 50 69 35 12 -8 15 -15 9 -21 -6 -6 -10 -16 -10 -23 0 -10 54 -13 265
-13 l265 0 0 405 0 405 -25 -6 c-15 -4 -25 -2 -25 5 0 6 11 13 25 17 l25 6 0
2014 0 2014 -540 0 c-297 0 -540 -3 -540 -6 0 -3 22 -58 49 -123 169 -403 482
-1225 481 -1265 -1 -50 -272 598 -466 1114 l-103 275 -3090 3 -3091 2 1 -1372z
m6839 -2379 c0 15 57 14 63 -1 3 -10 9 -10 26 0 11 6 40 12 63 11 37 -1 39 -2
18 -9 -16 -5 -19 -8 -8 -9 10 -1 20 -12 24 -26 3 -14 13 -25 21 -25 8 0 17 -9
20 -20 3 -11 12 -20 19 -20 8 0 14 -4 14 -10 0 -13 -6 -13 -32 1 -16 8 -24 8
-35 -4 -18 -18 -10 -35 23 -47 13 -5 24 -16 24 -24 0 -7 6 -16 13 -19 8 -3 13
-16 12 -28 -1 -13 4 -35 12 -49 20 -38 17 -53 -7 -40 -11 6 -20 9 -21 8 -10
-40 -8 -48 15 -48 36 0 85 -21 66 -28 -8 -3 -18 -9 -21 -14 -4 -6 -24 -12 -45
-15 -49 -6 -57 -13 -15 -13 18 0 30 -4 27 -8 -3 -5 0 -25 6 -46 10 -33 9 -38
-11 -57 -16 -15 -30 -19 -47 -15 -17 5 -26 2 -30 -9 -9 -21 -27 -19 -42 6 -10
16 -19 19 -40 14 -57 -14 -70 -46 -35 -86 13 -15 7 -18 -57 -34 -38 -9 -77
-14 -87 -11 -9 4 -52 1 -96 -5 -97 -14 -93 -19 -131 120 l-28 101 -47 0 c-74
0 -77 -5 -57 -97 9 -43 19 -90 22 -105 6 -34 -27 -59 -69 -51 l-28 6 20 19
c43 39 18 71 -28 37 -26 -19 -32 -20 -47 -8 -9 7 -26 18 -38 24 -11 6 -22 22
-24 35 -1 14 -9 50 -17 80 -8 30 -23 100 -34 155 -11 55 -27 132 -35 170 -8
39 -17 87 -20 107 l-6 38 45 -7 c38 -5 45 -3 45 11 0 9 5 16 10 16 9 0 14 -13
12 -31 -1 -5 121 -3 183 4 18 2 31 10 33 20 2 10 8 17 14 17 6 0 8 -9 5 -20
-3 -10 1 -24 9 -31 11 -9 14 -7 14 10 0 22 9 26 100 36 30 3 71 8 90 11 19 3
55 6 80 7 35 2 46 7 49 22 3 18 4 18 22 -4 11 -13 19 -18 19 -12z"/>
<path d="M1455 3658 c-2 -7 -45 -184 -96 -393 -50 -209 -99 -406 -110 -437
-10 -32 -19 -62 -19 -68 0 -13 79 -118 106 -141 23 -19 248 -84 262 -75 12 7
41 133 116 496 79 379 76 338 27 414 -31 47 -40 70 -36 88 9 34 -13 49 -128
92 -108 40 -116 41 -122 24z"/>
<path d="M1973 3468 c-5 -7 -40 -190 -77 -407 -37 -217 -74 -408 -83 -424 -14
-28 -13 -31 6 -56 12 -14 31 -40 43 -57 27 -38 83 -78 97 -69 6 3 11 2 11 -3
0 -5 9 -12 20 -15 22 -6 28 8 8 16 -9 4 -10 6 -1 6 6 1 19 -6 28 -16 12 -11
19 -13 24 -5 3 6 15 9 26 7 11 -2 26 -4 33 -4 9 -1 11 -8 7 -23 -7 -23 -7 -23
8 -3 9 11 11 22 6 23 -5 2 -9 8 -9 14 0 6 7 8 15 4 12 -4 15 5 15 47 0 38 3
48 10 37 8 -11 10 -8 7 15 -3 17 -1 37 3 45 12 26 22 107 10 90 -5 -8 -10 -10
-10 -4 0 5 5 15 11 21 7 7 12 35 13 62 1 28 4 51 9 51 4 0 7 12 6 28 0 15 4
53 10 86 6 32 9 63 8 69 -4 21 57 40 133 41 63 0 84 -4 129 -28 43 -22 55 -25
62 -14 14 21 10 -60 -15 -314 -14 -138 -28 -244 -35 -252 -8 -9 -10 -25 -6
-38 15 -48 102 -118 127 -102 7 4 8 3 4 -4 -4 -7 -2 -12 4 -12 6 0 8 -5 4 -12
-4 -7 -3 -8 5 -4 6 4 8 12 5 18 -4 7 2 7 17 2 38 -13 69 -8 90 14 10 12 16 28
13 36 -3 9 -2 16 3 16 6 0 10 12 11 28 3 123 5 161 11 158 3 -2 7 28 9 68 1
39 4 89 7 111 11 103 10 198 -3 216 -7 10 -21 50 -31 88 -53 203 -206 307
-471 320 l-115 6 -3 27 c-4 34 -13 41 -97 71 -38 14 -77 28 -86 32 -9 3 -20 0
-26 -7z"/>
<path d="M3260 3307 c-14 -7 -45 -21 -70 -30 -25 -10 -55 -31 -68 -47 -22 -28
-22 -31 -8 -62 9 -19 39 -61 67 -96 27 -34 46 -62 41 -62 -5 0 -75 25 -156 56
-81 31 -149 54 -151 52 -3 -3 -8 -32 -11 -66 -4 -34 -13 -67 -20 -73 -7 -6
-10 -18 -7 -27 7 -19 63 -87 63 -76 0 3 7 0 16 -7 9 -7 21 -14 28 -15 32 -6
87 -36 96 -54 17 -31 29 -24 36 20 4 23 9 39 11 36 9 -8 -18 -591 -28 -601
-30 -30 20 -86 100 -109 85 -25 99 -22 110 22 5 20 12 147 15 281 3 152 9 248
16 256 14 16 63 13 113 -9 52 -21 74 -9 79 46 3 24 1 53 -4 66 -4 13 -8 36 -8
52 0 24 -8 34 -46 56 -26 15 -58 38 -72 51 -14 13 -30 23 -36 23 -6 0 -3 5 7
11 10 6 14 15 10 22 -11 18 -11 47 1 40 5 -4 -3 10 -18 30 -28 37 -28 37 -12
78 19 48 14 86 -15 124 -23 28 -42 31 -79 12z"/>
<path d="M3661 2498 c3 -329 3 -334 27 -387 13 -29 50 -80 81 -112 52 -55 62
-61 131 -78 48 -12 95 -17 127 -14 44 4 59 0 100 -24 26 -15 50 -28 53 -29 3
0 12 -3 20 -6 8 -4 30 -9 47 -12 63 -11 63 -12 8 524 -8 80 -21 169 -28 199
-12 54 -13 55 -71 78 -32 13 -61 21 -64 18 -5 -5 11 -305 25 -442 l6 -63 -39
-16 c-50 -21 -135 -15 -172 13 -62 46 -72 97 -86 413 -5 106 -17 205 -27 214
-5 5 -130 56 -137 56 -2 0 -2 -150 -1 -332z"/>
<path d="M4855 2624 c-11 -8 -35 -19 -55 -24 -19 -6 -45 -18 -58 -28 -29 -23
-21 -48 42 -126 25 -30 46 -58 46 -61 0 -11 -33 -3 -105 25 -42 17 -80 30 -86
30 -7 0 -8 -19 -4 -55 5 -38 4 -55 -4 -55 -21 0 -11 -26 29 -68 22 -23 47 -42
55 -42 9 0 21 -4 28 -10 73 -58 65 -39 98 -260 24 -168 28 -209 18 -228 -12
-21 -8 -27 36 -72 27 -27 51 -47 55 -45 3 2 18 -2 33 -10 22 -11 25 -11 20 1
-3 8 0 14 6 14 15 0 10 45 -30 303 -18 109 -29 201 -25 204 4 4 33 -3 65 -14
l58 -21 -4 46 c-3 26 -11 66 -19 90 -8 23 -14 49 -14 57 0 8 -9 19 -19 25 -19
10 -121 154 -121 171 0 5 9 23 20 41 24 40 25 59 5 98 -17 33 -39 37 -70 14z"/>
<path d="M4414 2429 c4 -52 18 -204 32 -338 16 -165 21 -248 14 -255 -5 -5
-10 -16 -10 -23 0 -17 59 -79 72 -75 5 1 22 -5 38 -13 17 -9 30 -11 30 -5 0 5
7 10 15 10 27 0 24 56 -21 415 -18 150 -26 198 -41 263 -16 68 -20 75 -52 88
-19 8 -46 17 -59 21 l-25 6 7 -94z"/>
<path d="M3483 1372 c-99 -12 -123 -18 -123 -31 0 -14 -2 -14 -10 -1 -8 13
-37 10 -222 -18 -385 -60 -813 -148 -1314 -272 -532 -131 -930 -253 -1634
-499 -96 -33 -176 -61 -177 -61 -2 0 -3 -110 -3 -245 l0 -245 2803 2 2802 3
19 158 c10 87 16 160 14 163 -3 2 -268 34 -589 69 -940 103 -1111 124 -1158
141 -90 34 -150 116 -176 242 -9 40 -17 174 -21 339 l-7 273 -41 -1 c-23 -1
-96 -8 -163 -17z"/>
</g>
</svg>
